<?xml version="1.0" encoding="utf-8" ?><svg xmlns="http://www.w3.org/2000/svg" xmlns:xlink="http://www.w3.org/1999/xlink" width="500" height="436" viewBox="0 0 500 436"><path fill="#F6A43E" transform="matrix(0.846024 0 0 0.848249 7.62939e-06 0)" d="M218.368 153.646C221.649 153.111 226.859 153.664 230.181 153.882C267.333 156.323 289.737 183.812 291.765 219.809C293.095 243.404 292.025 268.304 275.862 287.459C263.466 302.149 246.433 308.388 227.756 309.661C186.363 313.145 156.936 285.528 153.465 245.164C151.456 221.797 153.726 196.242 168.848 177.083C181.695 160.806 198.734 155.7 218.368 153.646ZM225.086 267.271C232.301 265.533 237.972 262.331 241.756 255.674C252.011 237.634 249.165 193.761 220.837 195.77C198.707 198.485 196.421 225.208 198.784 242.794C199.847 250.711 202.954 258.162 209.486 263.128C214.774 267.077 218.846 267.461 225.086 267.271Z"/><path fill="#DE066E" transform="matrix(0.846024 0 0 0.848249 7.62939e-06 0)" d="M88.6141 346.854C98.0887 342.959 129.234 343.471 138.537 347.197C138.763 347.288 138.987 347.384 139.209 347.484C142.096 351.286 145.779 362.763 147.603 367.793L158.056 396.922C159.65 401.4 161.123 406.015 162.834 410.433C167.779 396.393 171.006 380.939 176.155 366.828C178.267 361.04 179.28 354.591 182.195 349.049C183.22 346.927 184.811 346.418 186.96 345.856C194.459 344.633 200.615 344.456 208.257 344.251C216.591 344.531 228.949 344.57 236.475 347.88C237.16 355.392 237.245 364.876 237.491 372.594L238.754 406.289C239.355 422.45 242.136 459.986 241.933 478.047C241.911 480.094 230.069 480.949 228.15 480.978C219.992 481.336 211.363 481.295 203.517 478.904C202.373 472.173 202.366 459.389 201.925 451.885L200.234 421.092C199.878 414.535 199.287 406.644 199.431 400.134L199.284 400.472C197.441 404.76 194.698 415.168 193.192 420.142L181.295 459.432C180.291 462.805 179.292 466.301 178.259 469.637C177.511 472.052 175.954 479.017 173.411 479.699C166.132 481.654 156.714 481.002 149.421 479.483C146.205 470.805 143.364 460.679 140.679 451.793L129.565 415.734C127.847 410.192 126.414 404.419 124.438 399.03C124.042 405.405 124.097 411.425 123.912 417.784C123.573 430.068 123.171 442.35 122.706 454.63C122.579 458.294 122.784 476.598 120.618 478.198C116.295 481.392 100.189 481.305 94.7059 480.751C90.8403 480.369 87.0558 479.397 83.4835 477.871C82.8952 470.226 83.8516 460.538 84.1757 452.671L85.9555 406.356L87.1784 372.475C87.3304 367.024 87.5072 351.238 88.6141 346.854Z"/><path fill="#04A7D1" transform="matrix(0.846024 0 0 0.848249 7.62939e-06 0)" d="M33.8703 155.674C69.4751 155.594 117.559 150.281 133.73 191.357C140.395 208.288 140.22 228.8 138.55 246.645C136.861 264.687 129.589 283.002 115.239 294.641C98.2811 308.597 76.0975 308.114 55.4719 307.706C50.2885 307.604 45.0253 307.9 39.8244 307.777C33.0021 307.615 22.7219 309.113 22.2621 299.394C21.8503 290.336 22.0208 281.324 22.023 272.298L22.0827 222.969L22.1674 185.641C22.1823 178.68 21.9751 171.452 22.5301 164.54C23.0234 158.396 28.4911 155.973 33.8703 155.674ZM85.5854 261.581C93.8896 251.234 94.1835 231.426 92.8185 218.641C92.2017 212.864 90.517 206.051 85.732 202.284C79.3128 197.23 71.8144 197.791 64.5173 196.897C64.5299 205.748 63.64 265.922 65.3932 267.919C66.2084 268.848 67.4397 268.934 68.5896 268.908C74.6374 268.773 81.1196 266.593 85.236 262.004C85.358 261.867 85.4708 261.723 85.5854 261.581Z"/><path fill="#E44337" transform="matrix(0.846024 0 0 0.848249 7.62939e-06 0)" d="M340.554 155.423C343.832 155.282 347.503 155.383 350.65 155.315C386.479 154.541 416.15 166.745 415.342 207.768C415.042 222.976 409.894 237.658 398.839 248.831C386.786 261.013 368.042 264.687 351.44 264.488C351.67 267.816 351.592 272.275 351.628 275.687C351.673 282.783 351.979 298.27 351.019 304.982C343.035 309.137 317.089 309.369 309.002 305.265C308.862 304.44 308.709 303.14 308.688 302.308C308.481 293.922 308.566 285.377 308.56 276.99L308.527 228.569L308.501 185.449C308.489 177.699 308.42 169.978 308.608 162.229C308.81 153.95 317.775 155.441 323.684 155.474C329.307 155.559 334.931 155.542 340.554 155.423ZM351.265 227.569C352.391 227.462 356.659 227.132 357.604 226.831C365.048 226.141 370.669 220.751 371.58 213.291C372.609 204.851 371.463 195.178 361.123 193.922C358.179 193.467 354.289 193.553 351.161 193.331C351.369 200.578 351.456 207.827 351.421 215.077C351.423 218.743 351.54 224.017 351.265 227.569Z"/><path fill="#DE066E" transform="matrix(0.846024 0 0 0.848249 7.62939e-06 0)" d="M362.989 343.575C368.932 343.522 384.035 343.914 387.903 349.051C390.258 352.177 393.1 359.757 394.719 363.634C397.421 370.018 400.067 376.424 402.658 382.853C405.894 376.277 415.743 351.926 419.37 348.355C427.249 340.598 454.101 345.371 464.634 345.486L465.042 345.489C463.697 349.976 456.34 364.171 453.968 368.961L431.707 413.819C437.119 422.666 442.381 433.899 447.467 443.128C453.975 454.936 460.759 466.947 466.438 479.15C457.479 480.758 449.812 480.838 440.775 480.932C433.92 480.919 423.423 481.114 417.589 477.241C414.493 474.275 411.922 467.132 410.454 463.229C407.474 455.3 402.443 445.313 400.95 437.19C397.666 444.701 388.89 474.865 384.886 477.991C378.578 482.916 348.984 480.632 340.169 479.251C341.784 473.227 346.467 464.272 349.091 458.189C355.971 442.242 363.782 426.412 370.785 410.549C368.941 407.499 366.76 402.688 365.096 399.355L354.793 378.635C350.047 368.974 342.619 355.167 338.895 345.675C347.447 344.33 354.262 343.796 362.989 343.575Z"/><path fill="#3BA440" transform="matrix(0.846024 0 0 0.848249 7.62939e-06 0)" d="M439.308 155.35C444.817 155.199 450.273 155.408 455.778 155.443L481.757 155.443C493.703 155.421 508.047 154.814 519.726 155.666C523.987 163.045 522.894 171.235 523.035 179.415C523.127 184.757 522.858 189.058 519.746 193.582C515.912 194.205 508.008 193.986 503.87 193.98L477.85 193.967C478.274 200.598 477.858 208.489 478.196 215.54C483.613 215.561 489.031 215.548 494.449 215.501C498.298 215.454 504.963 214.77 507.965 216.7C511.913 219.556 510.921 245.369 507.738 246.859C502.897 249.126 484.197 248.074 478.214 247.938C478.594 254.088 478.683 263.35 478.54 269.525L488.062 269.528L507.686 269.489C511.187 269.488 517.077 269.347 520.39 269.863C525.774 279.234 526.12 298.517 520.329 307.604C516.671 308.027 510.509 307.937 506.699 307.957L482.085 307.954L457.588 307.981C452.724 307.993 447.784 308.1 442.937 307.867C440.212 307.736 436.175 307.137 435.676 303.887C434.77 297.995 435.035 291.751 435.047 285.785L435.07 258.182L434.599 202.045C434.477 187.98 434.47 173.927 434.918 159.868C435.03 156.381 436.244 155.936 439.308 155.35Z"/><path fill="#DE066E" transform="matrix(0.846024 0 0 0.848249 7.62939e-06 0)" d="M260.705 344.395C275.381 344.62 290.091 344.3 304.787 344.449C308.356 344.88 326.426 343.392 328.36 345.82C332.609 351.156 332.875 371.922 327.83 377.101C325.82 379.164 316.497 378.336 313.396 378.117L313.527 423.808C313.53 430.837 313.831 440.529 313.462 447.302C316.306 447.194 326.383 446.595 328.635 448.059C330.571 449.319 331.794 455.053 331.881 457.702C332.087 464.011 333.051 474.567 328.986 479.779C328.157 480.842 327.075 480.809 325.872 480.859C309.255 481.182 292.495 480.603 275.864 480.87C270.034 480.963 264.304 481.115 258.485 480.613C257.669 478.679 257.008 476.684 256.507 474.645C254.339 465.831 254.459 455.295 259.259 447.328C263.573 447.092 270.056 447.219 274.405 447.314C273.844 433.476 274.17 417.775 274.175 403.807L274.18 388.364C274.179 385.376 274.064 381.221 274.37 378.359C271.356 378.429 261.548 379.013 259.524 377.706C253.017 373.509 253.104 346.372 260.705 344.395Z"/><path fill="#DE066E" transform="matrix(0.846024 0 0 0.848249 7.62939e-06 0)" d="M242.483 28.446C242.71 28.4281 242.937 28.4108 243.164 28.3977C246.712 28.1942 259.468 27.6556 261.491 30.335C263.02 32.3601 262.43 59.3422 262.251 64.0673C264.782 63.6686 278.858 63.8818 281.87 64.0493C281.534 59.781 281.674 53.5478 281.641 49.2049C281.595 43.2891 281.446 36.3555 281.927 30.5144C287.236 28.1675 304.572 27.2542 309.188 30.6604C310.581 31.6881 309.967 56.4823 309.984 60.221L310.239 123.988C308.259 124.324 306.52 124.478 304.517 124.659C297.011 125.284 289.459 125.1 281.993 124.109C281.67 113.319 281.884 101.724 281.961 90.9011C275.557 90.8362 268.642 91.0802 262.311 90.7214C262.719 100.958 262.502 113.886 262.36 124.183C257.36 124.631 238.622 126.249 234.973 123.746C234.673 122.601 234.456 121.437 234.323 120.262C233.807 115.997 233.977 109.494 233.981 105.047L233.987 81.0646L233.971 48.9848C233.966 43.5866 233.913 38.1144 234.005 32.7158C234.073 31.8902 234.038 31.1467 234.656 30.5099C236.4 28.7136 240.146 28.6219 242.483 28.446Z"/><path fill="#DE066E" transform="matrix(0.846024 0 0 0.848249 7.62939e-06 0)" d="M333.286 28.4188C338.231 28.2968 344.226 28.4788 349.247 28.4855C359.008 28.4631 368.769 28.4967 378.53 28.5861C380.725 36.0874 380.186 45.1598 378.556 52.7704C369.52 52.9093 360.482 52.9302 351.445 52.833C351.489 57.3361 351.625 62.2105 351.479 66.6836C354.886 66.3127 367.7 66.2319 370.907 66.8765C372.411 73.001 371.785 81.0141 370.607 87.1871C363.743 87.3077 358.371 87.5073 351.442 87.1354C351.635 90.6535 351.789 97.2273 351.529 100.696L364.682 100.74C367.05 100.742 376.328 100.399 377.644 101.104C382.93 103.938 380.065 121.045 378.555 124.947C364.557 125.677 349.971 124.512 335.883 125.058C334.842 125.098 325.677 125.271 325.031 123.911C324.57 122.942 324.106 119.444 324.092 118.45C323.686 90.8186 323.894 63.1659 323.825 35.5319C323.822 34.0283 323.953 30.5321 324.481 29.3041C326.274 28.185 330.981 28.4442 333.286 28.4188Z"/><path fill="#DE066E" transform="matrix(0.846024 0 0 0.848249 7.62939e-06 0)" d="M161.306 28.3769C166.194 28.0894 171.286 28.5344 176.197 28.4875C178.991 28.4609 181.823 28.5095 184.62 28.516C196.424 28.5431 208.227 28.4467 220.03 28.5474C220.873 28.5546 222.919 28.6511 223.725 29.1365C227.268 32.672 226.576 50.1845 223.763 52.847C222.22 54.3071 208.578 53.7218 205.683 53.677C205.96 59.6464 205.782 66.9743 205.783 73.065L205.772 108.154C205.736 111.101 206.133 120.332 205.826 122.586C205.11 127.84 181.687 124.868 178.305 124.373C177.879 115.83 178.105 106.633 178.105 98.0129L178.097 53.7129C174.191 53.7428 164.174 54.103 161.072 53.2948C157.383 52.3333 156.439 30.6241 161.306 28.3769Z"/></svg>